<svg width="209" height="40" viewBox="0 0 209 40" fill="none" xmlns="http://www.w3.org/2000/svg">
<path d="M25.5745 17.0996C26.9731 15.701 29.2406 15.701 30.6392 17.0996L46.3083 32.7687C47.7069 34.1673 47.7069 36.4348 46.3083 37.8334C44.9097 39.232 42.6421 39.232 41.2435 37.8334L25.5745 22.1644C24.1759 20.7658 24.1759 18.4982 25.5745 17.0996Z" fill="#0ED574"/>
<path d="M2.22559 19.4917C2.22559 17.5138 3.829 15.9104 5.8069 15.9104H27.9663C29.9442 15.9104 31.5476 17.5138 31.5476 19.4917C31.5476 21.4696 29.9442 23.073 27.9663 23.073H5.8069C3.829 23.073 2.22559 21.4696 2.22559 19.4917Z" fill="#0ED574"/>
<path d="M25.5042 19.4915C25.5042 18.1317 26.6065 17.0294 27.9663 17.0294C29.3261 17.0294 30.4285 18.1317 30.4285 19.4915C30.4285 20.8513 29.3261 21.9537 27.9663 21.9537C26.6065 21.9537 25.5042 20.8513 25.5042 19.4915Z" fill="white"/>
<path d="M42.2275 5.20756C41.266 4.24603 41.266 2.68708 42.2275 1.72554C43.189 0.764011 44.748 0.764012 45.7095 1.72554C46.671 2.68708 46.671 4.24603 45.7095 5.20756C44.748 6.16909 43.189 6.16909 42.2275 5.20756Z" fill="#0ED574"/>
<path d="M34.7885 12.6461C33.827 11.6846 33.827 10.1257 34.7885 9.16414C35.75 8.2026 37.309 8.2026 38.2705 9.16414C39.2321 10.1257 39.2321 11.6846 38.2705 12.6461C37.309 13.6077 35.75 13.6077 34.7885 12.6461Z" fill="#0ED574"/>
<path d="M26.3998 19.4918C26.3998 18.6265 27.1013 17.925 27.9666 17.925C28.832 17.925 29.5335 18.6265 29.5335 19.4918C29.5335 20.3572 28.832 21.0587 27.9666 21.0587C27.1013 21.0587 26.3998 20.3572 26.3998 19.4918Z" fill="#0ED574"/>
<path d="M195.592 35.2814C193.422 35.2814 191.47 34.8068 189.734 33.8577C187.999 32.8814 186.629 31.5119 185.626 29.7492C184.65 27.9865 184.161 25.9526 184.161 23.6475C184.161 21.3424 184.663 19.3085 185.666 17.5458C186.697 15.7831 188.094 14.4272 189.856 13.478C191.619 12.5018 193.585 12.0136 195.755 12.0136C197.924 12.0136 199.89 12.5018 201.653 13.478C203.416 14.4272 204.799 15.7831 205.802 17.5458C206.833 19.3085 207.348 21.3424 207.348 23.6475C207.348 25.9526 206.819 27.9865 205.761 29.7492C204.731 31.5119 203.321 32.8814 201.531 33.8577C199.768 34.8068 197.789 35.2814 195.592 35.2814ZM195.592 30.3187C196.622 30.3187 197.585 30.0746 198.48 29.5865C199.402 29.0713 200.134 28.3119 200.677 27.3085C201.219 26.3052 201.49 25.0848 201.49 23.6475C201.49 21.5051 200.921 19.8645 199.782 18.7255C198.67 17.5594 197.3 16.9763 195.673 16.9763C194.046 16.9763 192.677 17.5594 191.565 18.7255C190.48 19.8645 189.938 21.5051 189.938 23.6475C189.938 25.7899 190.466 27.4441 191.524 28.6102C192.609 29.7492 193.965 30.3187 195.592 30.3187Z" fill="#192839"/>
<path d="M171.18 12.0543C173.864 12.0543 176.034 12.9086 177.688 14.6171C179.342 16.2984 180.17 18.6577 180.17 21.695V34.9154H174.475V22.4679C174.475 20.6781 174.027 19.3086 173.132 18.3594C172.237 17.3832 171.017 16.895 169.471 16.895C167.898 16.895 166.651 17.3832 165.729 18.3594C164.834 19.3086 164.387 20.6781 164.387 22.4679V34.9154H158.692V12.3798H164.387V15.1865C165.146 14.2103 166.109 13.451 167.275 12.9086C168.468 12.3391 169.77 12.0543 171.18 12.0543Z" fill="#192839"/>
<path d="M132.757 23.6475C132.757 21.3153 133.231 19.2814 134.181 17.5458C135.13 15.7831 136.445 14.4272 138.126 13.478C139.808 12.5018 141.733 12.0136 143.903 12.0136C146.696 12.0136 149.001 12.7187 150.818 14.1289C152.662 15.5119 153.896 17.4645 154.52 19.9865H148.377C148.052 19.0102 147.496 18.2509 146.709 17.7085C145.95 17.139 145.001 16.8543 143.862 16.8543C142.235 16.8543 140.947 17.4509 139.998 18.6441C139.048 19.8102 138.574 21.478 138.574 23.6475C138.574 25.7899 139.048 27.4577 139.998 28.6509C140.947 29.817 142.235 30.4001 143.862 30.4001C146.167 30.4001 147.672 29.3696 148.377 27.3085H154.52C153.896 29.7492 152.662 31.6882 150.818 33.1255C148.974 34.5628 146.669 35.2814 143.903 35.2814C141.733 35.2814 139.808 34.8068 138.126 33.8577C136.445 32.8814 135.13 31.5255 134.181 29.7899C133.231 28.0272 132.757 25.9797 132.757 23.6475Z" fill="#192839"/>
<path d="M130.064 23.1594C130.064 23.9729 130.01 24.7051 129.902 25.356H113.427C113.563 26.9831 114.132 28.2577 115.136 29.1797C116.139 30.1018 117.373 30.5628 118.837 30.5628C120.953 30.5628 122.458 29.6543 123.353 27.8374H129.495C128.844 30.0068 127.597 31.7967 125.753 33.2068C123.909 34.5899 121.644 35.2814 118.959 35.2814C116.79 35.2814 114.837 34.8068 113.102 33.8577C111.393 32.8814 110.051 31.5119 109.075 29.7492C108.125 27.9865 107.651 25.9526 107.651 23.6475C107.651 21.3153 108.125 19.2679 109.075 17.5051C110.024 15.7424 111.353 14.3865 113.061 13.4374C114.77 12.4882 116.736 12.0136 118.959 12.0136C121.102 12.0136 123.014 12.4746 124.695 13.3967C126.403 14.3187 127.719 15.634 128.641 17.3424C129.59 19.0238 130.064 20.9628 130.064 23.1594ZM124.166 21.5323C124.139 20.0679 123.61 18.9018 122.58 18.034C121.549 17.139 120.288 16.6916 118.797 16.6916C117.387 16.6916 116.193 17.1255 115.217 17.9933C114.268 18.834 113.685 20.0136 113.468 21.5323H124.166Z" fill="#192839"/>
<path d="M87.2414 15.6746C87.9736 14.5899 88.977 13.7085 90.2516 13.0306C91.5533 12.3526 93.0312 12.0136 94.6855 12.0136C96.6109 12.0136 98.3465 12.4882 99.8922 13.4373C101.465 14.3865 102.699 15.7424 103.594 17.5051C104.516 19.2407 104.977 21.2611 104.977 23.5662C104.977 25.8712 104.516 27.9187 103.594 29.7085C102.699 31.4712 101.465 32.8407 99.8922 33.817C98.3465 34.7933 96.6109 35.2814 94.6855 35.2814C93.0041 35.2814 91.5261 34.956 90.2516 34.3051C89.0041 33.6272 88.0007 32.7594 87.2414 31.7017V34.9153H81.5465V4.81361H87.2414V15.6746ZM99.16 23.5662C99.16 22.2102 98.8753 21.0441 98.3058 20.0678C97.7634 19.0645 97.0312 18.3051 96.1092 17.7899C95.2143 17.2746 94.238 17.017 93.1804 17.017C92.1499 17.017 91.1736 17.2882 90.2516 17.8306C89.3566 18.3458 88.6244 19.1051 88.0549 20.1085C87.5126 21.1119 87.2414 22.2916 87.2414 23.6475C87.2414 25.0034 87.5126 26.1831 88.0549 27.1865C88.6244 28.1899 89.3566 28.9628 90.2516 29.5051C91.1736 30.0204 92.1499 30.278 93.1804 30.278C94.238 30.278 95.2143 30.0068 96.1092 29.4645C97.0312 28.9221 97.7634 28.1492 98.3058 27.1458C98.8753 26.1424 99.16 24.9492 99.16 23.5662Z" fill="#192839"/>
<path d="M65.437 35.2814C63.2675 35.2814 61.315 34.8068 59.5794 33.8576C57.8438 32.8814 56.4743 31.5119 55.4709 29.7492C54.4946 27.9864 54.0065 25.9525 54.0065 23.6475C54.0065 21.3424 54.5082 19.3085 55.5116 17.5458C56.5421 15.783 57.9387 14.4271 59.7014 13.478C61.4641 12.5017 63.4302 12.0136 65.5997 12.0136C67.7692 12.0136 69.7353 12.5017 71.498 13.478C73.2607 14.4271 74.6438 15.783 75.6472 17.5458C76.6777 19.3085 77.1929 21.3424 77.1929 23.6475C77.1929 25.9525 76.6641 27.9864 75.6065 29.7492C74.576 31.5119 73.1658 32.8814 71.376 33.8576C69.6133 34.8068 67.6336 35.2814 65.437 35.2814ZM65.437 30.3186C66.4675 30.3186 67.4302 30.0746 68.3251 29.5864C69.2472 29.0712 69.9794 28.3119 70.5217 27.3085C71.0641 26.3051 71.3353 25.0847 71.3353 23.6475C71.3353 21.5051 70.7658 19.8644 69.6268 18.7254C68.515 17.5593 67.1455 16.9763 65.5184 16.9763C63.8912 16.9763 62.5217 17.5593 61.4099 18.7254C60.3251 19.8644 59.7828 21.5051 59.7828 23.6475C59.7828 25.7898 60.3116 27.4441 61.3692 28.6102C62.4539 29.7492 63.8099 30.3186 65.437 30.3186Z" fill="#0ED574"/>
</svg>
