<svg width="400" height="74" viewBox="0 0 400 74" fill="none" xmlns="http://www.w3.org/2000/svg">
<path d="M199.678 16.0952C201.077 14.6966 203.344 14.6966 204.743 16.0952L220.412 31.7643C221.811 33.1629 221.811 35.4305 220.412 36.829C219.013 38.2276 216.746 38.2276 215.347 36.829L199.678 21.16C198.28 19.7614 198.28 17.4938 199.678 16.0952Z" fill="#0ED574"/>
<path d="M176.329 18.4873C176.329 16.5094 177.933 14.906 179.911 14.906H202.07C204.048 14.906 205.651 16.5094 205.651 18.4873C205.651 20.4652 204.048 22.0686 202.07 22.0686H179.911C177.933 22.0686 176.329 20.4652 176.329 18.4873Z" fill="#0ED574"/>
<path d="M199.608 18.4873C199.608 17.1275 200.71 16.0251 202.07 16.0251C203.43 16.0251 204.532 17.1275 204.532 18.4873C204.532 19.8471 203.43 20.9494 202.07 20.9494C200.71 20.9494 199.608 19.8471 199.608 18.4873Z" fill="white"/>
<path d="M217.331 4.20316C216.37 3.24163 216.37 1.68268 217.331 0.721149C218.293 -0.240383 219.852 -0.240383 220.813 0.721149C221.775 1.68268 221.775 3.24163 220.813 4.20316C219.852 5.16469 218.293 5.16469 217.331 4.20316Z" fill="#0ED574"/>
<path d="M209.892 11.6418C208.931 10.6802 208.931 9.12127 209.892 8.15974C210.854 7.19821 212.413 7.19821 213.374 8.15974C214.336 9.12127 214.336 10.6802 213.374 11.6418C212.413 12.6033 210.854 12.6033 209.892 11.6418Z" fill="#0ED574"/>
<path d="M200.504 18.4874C200.504 17.6221 201.205 16.9206 202.07 16.9206C202.936 16.9206 203.637 17.6221 203.637 18.4874C203.637 19.3528 202.936 20.0543 202.07 20.0543C201.205 20.0543 200.504 19.3528 200.504 18.4874Z" fill="#0ED574"/>
<path d="M264.915 73.4634C262.745 73.4634 260.793 72.9889 259.057 72.0397C257.322 71.0634 255.952 69.6939 254.949 67.9312C253.972 66.1685 253.484 64.1346 253.484 61.8295C253.484 59.5244 253.986 57.4905 254.989 55.7278C256.02 53.9651 257.416 52.6092 259.179 51.66C260.942 50.6838 262.908 50.1956 265.077 50.1956C267.247 50.1956 269.213 50.6838 270.976 51.66C272.738 52.6092 274.122 53.9651 275.125 55.7278C276.155 57.4905 276.671 59.5244 276.671 61.8295C276.671 64.1346 276.142 66.1685 275.084 67.9312C274.054 69.6939 272.644 71.0634 270.854 72.0397C269.091 72.9889 267.111 73.4634 264.915 73.4634ZM264.915 68.5007C265.945 68.5007 266.908 68.2567 267.803 67.7685C268.725 67.2533 269.457 66.4939 270 65.4905C270.542 64.4872 270.813 63.2668 270.813 61.8295C270.813 59.6872 270.244 58.0465 269.105 56.9075C267.993 55.7414 266.623 55.1583 264.996 55.1583C263.369 55.1583 262 55.7414 260.888 56.9075C259.803 58.0465 259.261 59.6872 259.261 61.8295C259.261 63.9719 259.789 65.6261 260.847 66.7922C261.932 67.9312 263.288 68.5007 264.915 68.5007Z" fill="#192839"/>
<path d="M240.503 50.2364C243.187 50.2364 245.357 51.0906 247.011 52.7991C248.665 54.4804 249.492 56.8397 249.492 59.877V73.0974H243.798V60.6499C243.798 58.8601 243.35 57.4906 242.455 56.5414C241.56 55.5652 240.34 55.077 238.794 55.077C237.221 55.077 235.974 55.5652 235.052 56.5414C234.157 57.4906 233.709 58.8601 233.709 60.6499V73.0974H228.014V50.5618H233.709V53.3686C234.469 52.3923 235.431 51.633 236.598 51.0906C237.791 50.5211 239.092 50.2364 240.503 50.2364Z" fill="#192839"/>
<path d="M202.08 61.8295C202.08 59.4973 202.554 57.4634 203.503 55.7278C204.453 53.9651 205.768 52.6092 207.449 51.66C209.131 50.6838 211.056 50.1956 213.225 50.1956C216.019 50.1956 218.324 50.9007 220.141 52.3109C221.985 53.6939 223.219 55.6465 223.842 58.1685H217.7C217.375 57.1922 216.819 56.4329 216.032 55.8905C215.273 55.3211 214.324 55.0363 213.185 55.0363C211.558 55.0363 210.27 55.6329 209.32 56.8261C208.371 57.9922 207.897 59.66 207.897 61.8295C207.897 63.9719 208.371 65.6397 209.32 66.8329C210.27 67.999 211.558 68.5821 213.185 68.5821C215.49 68.5821 216.995 67.5516 217.7 65.4905H223.842C223.219 67.9312 221.985 69.8702 220.141 71.3075C218.297 72.7448 215.992 73.4634 213.225 73.4634C211.056 73.4634 209.131 72.9889 207.449 72.0397C205.768 71.0634 204.453 69.7075 203.503 67.9719C202.554 66.2092 202.08 64.1617 202.08 61.8295Z" fill="#192839"/>
<path d="M199.387 61.3414C199.387 62.155 199.333 62.8872 199.225 63.538H182.75C182.886 65.1651 183.455 66.4397 184.459 67.3617C185.462 68.2838 186.696 68.7448 188.16 68.7448C190.275 68.7448 191.781 67.8363 192.675 66.0194H198.818C198.167 68.1889 196.92 69.9787 195.075 71.3889C193.231 72.7719 190.967 73.4634 188.282 73.4634C186.113 73.4634 184.16 72.9889 182.425 72.0397C180.716 71.0634 179.374 69.6939 178.398 67.9312C177.448 66.1685 176.974 64.1346 176.974 61.8295C176.974 59.4973 177.448 57.4499 178.398 55.6872C179.347 53.9244 180.675 52.5685 182.384 51.6194C184.092 50.6702 186.059 50.1956 188.282 50.1956C190.425 50.1956 192.336 50.6566 194.018 51.5787C195.726 52.5007 197.042 53.816 197.964 55.5244C198.913 57.2058 199.387 59.1448 199.387 61.3414ZM193.489 59.7143C193.462 58.2499 192.933 57.0838 191.903 56.216C190.872 55.3211 189.611 54.8736 188.12 54.8736C186.709 54.8736 185.516 55.3075 184.54 56.1753C183.591 57.016 183.008 58.1956 182.791 59.7143H193.489Z" fill="#192839"/>
<path d="M156.564 53.8566C157.296 52.7719 158.3 51.8905 159.574 51.2126C160.876 50.5346 162.354 50.1956 164.008 50.1956C165.934 50.1956 167.669 50.6702 169.215 51.6193C170.788 52.5685 172.022 53.9244 172.917 55.6871C173.839 57.4227 174.3 59.4431 174.3 61.7482C174.3 64.0532 173.839 66.1007 172.917 67.8905C172.022 69.6532 170.788 71.0227 169.215 71.999C167.669 72.9753 165.934 73.4634 164.008 73.4634C162.327 73.4634 160.849 73.138 159.574 72.4871C158.327 71.8092 157.324 70.9414 156.564 69.8838V73.0973H150.869V42.9956H156.564V53.8566ZM168.483 61.7482C168.483 60.3922 168.198 59.2261 167.629 58.2499C167.086 57.2465 166.354 56.4871 165.432 55.9719C164.537 55.4566 163.561 55.199 162.503 55.199C161.473 55.199 160.496 55.4702 159.574 56.0126C158.679 56.5278 157.947 57.2871 157.378 58.2905C156.835 59.2939 156.564 60.4736 156.564 61.8295C156.564 63.1854 156.835 64.3651 157.378 65.3685C157.947 66.3719 158.679 67.1448 159.574 67.6871C160.496 68.2024 161.473 68.46 162.503 68.46C163.561 68.46 164.537 68.1888 165.432 67.6465C166.354 67.1041 167.086 66.3312 167.629 65.3278C168.198 64.3244 168.483 63.1312 168.483 61.7482Z" fill="#192839"/>
<path d="M134.76 73.4633C132.59 73.4633 130.638 72.9887 128.902 72.0396C127.167 71.0633 125.797 69.6938 124.794 67.9311C123.817 66.1684 123.329 64.1345 123.329 61.8294C123.329 59.5243 123.831 57.4904 124.834 55.7277C125.865 53.965 127.262 52.6091 129.024 51.6599C130.787 50.6837 132.753 50.1955 134.923 50.1955C137.092 50.1955 139.058 50.6837 140.821 51.6599C142.584 52.6091 143.967 53.965 144.97 55.7277C146.001 57.4904 146.516 59.5243 146.516 61.8294C146.516 64.1345 145.987 66.1684 144.929 67.9311C143.899 69.6938 142.489 71.0633 140.699 72.0396C138.936 72.9887 136.956 73.4633 134.76 73.4633ZM134.76 68.5006C135.79 68.5006 136.753 68.2565 137.648 67.7684C138.57 67.2531 139.302 66.4938 139.845 65.4904C140.387 64.4871 140.658 63.2667 140.658 61.8294C140.658 59.687 140.089 58.0464 138.95 56.9074C137.838 55.7413 136.468 55.1582 134.841 55.1582C133.214 55.1582 131.845 55.7413 130.733 56.9074C129.648 58.0464 129.106 59.687 129.106 61.8294C129.106 63.9718 129.634 65.626 130.692 66.7921C131.777 67.9311 133.133 68.5006 134.76 68.5006Z" fill="#0ED574"/>
</svg>
