<svg width="480" height="48" viewBox="0 0 480 48" fill="none" xmlns="http://www.w3.org/2000/svg">
<path d="M24.4417 21.0996C25.8402 19.701 28.1078 19.701 29.5064 21.0996L45.1755 36.7687C46.5741 38.1673 46.5741 40.4348 45.1755 41.8334C43.7769 43.232 41.5093 43.232 40.1107 41.8334L24.4417 26.1644C23.0431 24.7658 23.0431 22.4982 24.4417 21.0996Z" fill="#0ED574"/>
<path d="M1.09277 23.4917C1.09277 21.5138 2.69618 19.9104 4.67409 19.9104H26.8335C28.8114 19.9104 30.4148 21.5138 30.4148 23.4917C30.4148 25.4696 28.8114 27.073 26.8335 27.073H4.67409C2.69618 27.073 1.09277 25.4696 1.09277 23.4917Z" fill="#0ED574"/>
<path d="M25.3714 23.4916C25.3714 22.1318 26.4737 21.0294 27.8336 21.0294C29.1934 21.0294 30.2957 22.1318 30.2957 23.4916C30.2957 24.8514 29.1934 25.9537 27.8336 25.9537C26.4737 25.9537 25.3714 24.8514 25.3714 23.4916Z" fill="white"/>
<path d="M42.0947 9.20756C41.1331 8.24603 41.1331 6.68708 42.0947 5.72554C43.0562 4.76401 44.6152 4.76401 45.5767 5.72554C46.5382 6.68708 46.5382 8.24603 45.5767 9.20756C44.6152 10.1691 43.0562 10.1691 42.0947 9.20756Z" fill="#0ED574"/>
<path d="M34.6557 16.6461C33.6942 15.6846 33.6942 14.1257 34.6557 13.1641C35.6172 12.2026 37.1762 12.2026 38.1377 13.1641C39.0992 14.1257 39.0992 15.6846 38.1377 16.6461C37.1762 17.6077 35.6172 17.6077 34.6557 16.6461Z" fill="#0ED574"/>
<path d="M26.267 23.4919C26.267 22.6265 26.9685 21.9251 27.8338 21.9251C28.6992 21.9251 29.4007 22.6265 29.4007 23.4919C29.4007 24.3572 28.6992 25.0587 27.8338 25.0587C26.9685 25.0587 26.267 24.3572 26.267 23.4919Z" fill="#0ED574"/>
</svg>
