<svg width="24" height="25" viewBox="0 0 24 25" fill="none" xmlns="http://www.w3.org/2000/svg">
<path d="M12 3.74414C17.8125 3.74414 22.5 8.43164 22.5 14.2441C22.5 16.8691 21.5156 19.2598 19.9219 21.1348L22.2656 23.4785C22.5938 23.7598 22.5938 24.2285 22.2656 24.5098C21.9844 24.8379 21.5156 24.8379 21.2344 24.5098L18.8906 22.166C17.0156 23.7598 14.625 24.7441 12 24.7441C9.375 24.7441 6.98438 23.7598 5.10938 22.166L2.76562 24.5098C2.48438 24.8379 2.01562 24.8379 1.73438 24.5098C1.45312 24.2285 1.45312 23.7598 1.73438 23.4785L4.07812 21.1348C2.48438 19.2598 1.5 16.8691 1.5 14.2441C1.5 8.43164 6.1875 3.74414 12 3.74414ZM12 5.24414C7.03125 5.24414 3 9.27539 3 14.2441C3 19.2129 7.03125 23.2441 12 23.2441C16.9688 23.2441 21 19.2129 21 14.2441C21 9.27539 16.9688 5.24414 12 5.24414ZM12 20.2441C11.3906 20.2441 10.875 19.7285 10.875 19.1191C10.875 18.5098 11.3906 17.9941 12 17.9941C12.6094 17.9941 13.125 18.5098 13.125 19.1191C13.125 19.7285 12.6094 20.2441 12 20.2441ZM12 8.24414C12.6562 8.24414 13.125 8.75977 13.125 9.41602L12.75 15.791C12.7031 16.166 12.375 16.4941 12 16.4941C11.5781 16.4941 11.25 16.166 11.25 15.791L10.875 9.41602C10.875 8.75977 11.3438 8.24414 12 8.24414ZM4.45312 0.744141C5.39062 0.744141 6.23438 1.02539 6.9375 1.49414C7.35938 1.77539 7.21875 2.43164 6.70312 2.61914V2.66602C6.42188 2.75977 6.14062 2.75977 5.85938 2.61914C5.4375 2.38477 4.96875 2.24414 4.45312 2.24414C2.8125 2.24414 1.5 3.55664 1.5 5.19727C1.5 5.52539 1.54688 5.85352 1.64062 6.13477C1.73438 6.41602 1.73438 6.69727 1.54688 6.93164L1.5 6.97852C1.21875 7.40039 0.5625 7.44727 0.375 6.97852C0.140625 6.41602 0 5.85352 0 5.19727C0 2.75977 2.01562 0.744141 4.45312 0.744141ZM19.5469 0.744141C21.9844 0.744141 24 2.75977 24 5.19727C24 5.80664 23.8594 6.41602 23.625 6.97852C23.4375 7.44727 22.7812 7.40039 22.4531 6.97852V6.93164C22.2656 6.69727 22.2656 6.41602 22.3594 6.13477C22.4531 5.85352 22.5 5.52539 22.5 5.19727C22.5 3.55664 21.1875 2.24414 19.5469 2.24414C19.0312 2.24414 18.5625 2.38477 18.1406 2.61914C17.8594 2.75977 17.5781 2.75977 17.2969 2.66602L17.25 2.61914C16.7812 2.43164 16.6406 1.77539 17.0625 1.49414C17.7656 1.02539 18.6094 0.744141 19.5469 0.744141Z" fill="#545861"/>
</svg>
