<svg width="22" height="23" viewBox="0 0 22 23" fill="none" xmlns="http://www.w3.org/2000/svg">
<path d="M5.75 0.5C6.17188 0.5 6.5 0.828125 6.5 1.25V3.5H15.5V1.25C15.5 0.828125 15.8281 0.5 16.25 0.5C16.6719 0.5 17 0.828125 17 1.25V3.5H18.5C20.1406 3.5 21.5 4.85938 21.5 6.5V20C21.5 21.6406 20.1406 23 18.5 23H3.5C1.85938 23 0.5 21.6406 0.5 20V6.5C0.5 4.85938 1.85938 3.5 3.5 3.5H5V1.25C5 0.828125 5.32812 0.5 5.75 0.5ZM18.5 5H3.5C2.65625 5 2 5.65625 2 6.5V20C2 20.8438 2.65625 21.5 3.5 21.5H18.5C19.3438 21.5 20 20.8438 20 20V6.5C20 5.65625 19.3438 5 18.5 5ZM11.9375 11.4688L11.5156 11.8906C11.375 12.0312 11.1875 12.125 11 12.125C10.8125 12.125 10.625 12.0312 10.4844 11.8906L10.0625 11.4688C9.73438 11.1875 9.3125 11 8.89062 11H8.75C7.90625 11 7.25 11.6562 7.25 12.5C7.25 13.4844 7.95312 14.5156 8.89062 15.3594C9.64062 16.1094 10.5312 16.625 11 16.9062C11.4688 16.625 12.3594 16.1094 13.1094 15.3594C14.0938 14.5156 14.75 13.4844 14.75 12.5C14.75 11.6562 14.0938 11 13.25 11H13.1094C12.6875 11 12.2656 11.1875 11.9375 11.4688ZM13.1094 9.5H13.25C14.8906 9.5 16.25 10.8594 16.25 12.5C16.25 14.1406 15.1719 15.5469 14.1406 16.4844C13.1094 17.4219 11.9375 18.0781 11.5156 18.3125C11.1875 18.5 10.8125 18.5 10.4844 18.3125C10.0625 18.0781 8.89062 17.4219 7.85938 16.4844C6.82812 15.5469 5.75 14.1406 5.75 12.5C5.75 10.8594 7.10938 9.5 8.75 9.5H8.89062C9.6875 9.5 10.4375 9.78125 11 10.3438C11.5625 9.78125 12.3125 9.5 13.1094 9.5Z" fill="#545861"/>
</svg>
