<svg width="18" height="19" viewBox="0 0 18 19" fill="none" xmlns="http://www.w3.org/2000/svg">
<path d="M9 18.25C4.04297 18.25 0 14.207 0 9.25C0 4.29297 4.04297 0.25 9 0.25C13.957 0.25 18 4.29297 18 9.25C18 14.207 13.957 18.25 9 18.25ZM9 1.9375C4.95703 1.9375 1.6875 5.20703 1.6875 9.25C1.6875 13.293 4.95703 16.5625 9 16.5625C13.043 16.5625 16.3125 13.293 16.3125 9.25C16.3125 5.20703 13.043 1.9375 9 1.9375ZM9 13.75C8.36719 13.75 7.875 13.2578 7.875 12.625C7.875 11.9922 8.36719 11.5 9 11.5C9.63281 11.5 10.125 11.9922 10.125 12.625C10.125 13.2578 9.63281 13.75 9 13.75ZM9 4.75C9.63281 4.75 10.1602 5.3125 10.0898 5.94531L9.84375 9.60156C9.80859 10.0234 9.45703 10.375 9 10.375C8.57812 10.375 8.19141 10.0234 8.15625 9.60156L7.91016 5.94531C7.83984 5.3125 8.36719 4.75 9 4.75Z" fill="#545861"/>
</svg>
