<svg width="19" height="19" viewBox="0 0 19 19" fill="none" xmlns="http://www.w3.org/2000/svg">
<path d="M2.26562 12.6953C2.44141 12.168 2.6875 11.7109 3.07422 11.3242L13.4102 0.988281C13.8672 0.53125 14.5352 0.25 15.2031 0.25C15.8711 0.25 16.5391 0.53125 16.9961 0.988281L18.2617 2.25391C18.7188 2.71094 19 3.37891 19 4.04688C19 4.71484 18.7188 5.38281 18.2617 5.83984L7.92578 16.1758C7.53906 16.5625 7.08203 16.8438 6.55469 16.9844L2.05469 18.2148C1.77344 18.2852 1.45703 18.2148 1.24609 18.0039C1.03516 17.793 0.929688 17.4766 1.03516 17.1953L2.26562 12.6953ZM14.6055 2.18359L12.7422 4.04688L15.2031 6.50781L17.0664 4.64453C17.2422 4.50391 17.3125 4.29297 17.3125 4.04688C17.3125 3.83594 17.207 3.58984 17.0664 3.44922L15.8008 2.18359C15.6602 2.04297 15.4141 1.9375 15.2031 1.9375C14.9922 1.9375 14.7461 2.04297 14.6055 2.18359ZM11.5469 5.24219L4.26953 12.5195C4.09375 12.6953 3.98828 12.9062 3.91797 13.1523L3.07422 16.2109L6.09766 15.3672C6.34375 15.2969 6.55469 15.1562 6.73047 14.9805L14.0078 7.70312L11.5469 5.24219Z" fill="#545861"/>
</svg>
