<svg width="14" height="19" viewBox="0 0 14 19" fill="none" xmlns="http://www.w3.org/2000/svg">
<path d="M6.75 0.25C10.4766 0.25 13.5 3.20312 13.5 6.89453C13.5 11.0781 9.28125 16.1055 7.52344 18.0039C7.10156 18.4609 6.39844 18.4609 5.97656 18.0039C4.21875 16.1055 0 11.0781 0 6.89453C0 3.20312 3.02344 0.25 6.75 0.25ZM6.75 1.9375C3.9375 1.9375 1.6875 4.1875 1.6875 6.89453C1.6875 8.47656 2.53125 10.4453 3.76172 12.4141C4.74609 13.9961 5.90625 15.3672 6.75 16.3516C7.59375 15.3672 8.75391 13.9961 9.73828 12.4141C10.9688 10.4453 11.8125 8.47656 11.8125 6.89453C11.8125 4.1875 9.5625 1.9375 6.75 1.9375ZM6.75 12.625C6.11719 12.625 5.625 12.1328 5.625 11.5C5.625 10.8672 6.11719 10.375 6.75 10.375C7.38281 10.375 7.875 10.8672 7.875 11.5C7.875 12.1328 7.38281 12.625 6.75 12.625ZM6.75 3.625C7.38281 3.625 7.91016 4.1875 7.83984 4.82031L7.59375 8.47656C7.55859 8.89844 7.20703 9.25 6.75 9.25C6.32812 9.25 5.94141 8.89844 5.90625 8.47656L5.66016 4.82031C5.58984 4.1875 6.11719 3.625 6.75 3.625Z" fill="#F9C533"/>
</svg>
