<svg width="24" height="25" viewBox="0 0 24 25" fill="none" xmlns="http://www.w3.org/2000/svg">
<path d="M3.75 0.75C4.17188 0.75 4.5 1.07812 4.5 1.5C4.5 2.4375 4.96875 2.90625 5.76562 3.5625V3.60938C6.51562 4.21875 7.5 5.10938 7.5 6.75C7.5 7.17188 7.17188 7.5 6.75 7.5C6.32812 7.5 6 7.17188 6 6.75C6 5.8125 5.53125 5.34375 4.73438 4.6875V4.64062C3.98438 4.03125 3 3.14062 3 1.5C3 1.07812 3.32812 0.75 3.75 0.75ZM1.5 11.25V20.25C1.5 21.8906 2.85938 23.25 4.5 23.25H13.5C15.1406 23.25 16.5 21.8906 16.5 20.25V11.25H1.5ZM18 11.25V18.75H18.75C20.8125 18.75 22.5 17.0625 22.5 15C22.5 12.9375 20.8125 11.25 18.75 11.25H18ZM18 20.25C18 22.7344 15.9844 24.75 13.5 24.75H4.5C2.01562 24.75 0 22.7344 0 20.25V11.25C0 10.4062 0.65625 9.75 1.5 9.75H18.75C21.6562 9.75 24 12.0938 24 15C24 17.9062 21.6562 20.25 18.75 20.25H18ZM10.5 1.5C10.5 2.4375 10.9688 2.90625 11.7656 3.5625V3.60938C12.5156 4.21875 13.5 5.10938 13.5 6.75C13.5 7.17188 13.1719 7.5 12.75 7.5C12.3281 7.5 12 7.17188 12 6.75C12 5.8125 11.5312 5.34375 10.7344 4.6875V4.64062C9.98438 4.03125 9 3.14062 9 1.5C9 1.07812 9.32812 0.75 9.75 0.75C10.1719 0.75 10.5 1.07812 10.5 1.5Z" fill="#545861"/>
</svg>
