<svg width="24" height="23" viewBox="0 0 24 23" fill="none" xmlns="http://www.w3.org/2000/svg">
<path d="M9.23633 1.95417C10.127 0.641666 11.9551 0.172916 13.3613 1.01667L13.6426 1.20417C14.9082 2.04792 15.3301 3.68854 14.7676 5.04792L14.5801 5.32917L13.1738 7.90729H20.5332C22.8301 8.09479 23.9551 10.8135 22.7363 12.5948C23.5332 13.7667 23.3926 15.4073 22.3613 16.3917C22.7832 17.7042 22.1738 19.2042 21.002 19.9073C21.002 21.3604 19.877 22.7198 18.377 22.9073H12.6582C11.252 22.9073 10.0801 22.3917 9.04883 21.9229C8.1582 21.501 7.36133 20.9385 6.75195 20.1885V20.6573C6.75195 21.9229 5.76758 22.9073 4.50195 22.9073H3.00195C1.7832 22.9073 0.751953 21.9229 0.751953 20.6573V10.1573C0.751953 8.93854 1.7832 7.90729 3.00195 7.90729H4.50195C4.92383 7.90729 5.3457 8.04792 5.67383 8.23542C5.7207 8.09479 5.81445 8.00104 5.86133 7.86042L9.04883 2.23542L9.23633 1.95417ZM3.00195 9.40729C2.58008 9.40729 2.25195 9.73542 2.25195 10.1573V20.6573C2.25195 21.0792 2.58008 21.4073 3.00195 21.4073H4.50195C4.92383 21.4073 5.25195 21.0792 5.25195 20.6573V10.1573C5.25195 9.73542 4.92383 9.40729 4.50195 9.40729H3.00195ZM12.6582 2.32917C11.9082 1.90729 10.9238 2.09479 10.4551 2.79792L10.3613 2.93854L7.17383 8.61042C6.93945 9.03229 6.79883 9.50104 6.75195 9.96979V16.0635C6.75195 18.0323 7.87695 19.7667 9.6582 20.5167C10.7363 21.0323 11.627 21.4073 12.6582 21.4073H18.1895C19.0332 21.3135 19.6426 20.4229 19.4551 19.5792C19.4082 19.2042 19.5957 18.8292 19.9707 18.6885C20.8613 18.4073 21.2832 17.3292 20.8145 16.5323C20.627 16.2042 20.7207 15.7823 21.0488 15.5479C21.8926 15.0323 21.9863 13.8135 21.2363 13.1573C21.0957 13.0167 21.002 12.8292 21.002 12.5948C21.002 12.3604 21.0957 12.1729 21.2363 12.0323C22.1738 11.1885 21.6582 9.64167 20.4863 9.45417L20.252 9.40729H11.8613C11.627 9.40729 11.3457 9.26667 11.2051 9.03229C11.1113 8.79792 11.1113 8.51667 11.2051 8.28229L13.3145 4.62604L13.3613 4.48542C13.6895 3.73542 13.4551 2.89167 12.7988 2.42292L12.6582 2.32917Z" fill="#545861"/>
</svg>
