<svg width="20" height="18" viewBox="0 0 20 18" fill="none" xmlns="http://www.w3.org/2000/svg">
<path d="M10.0352 0.25C10.5273 0.25 11.0195 0.53125 11.2656 0.988281L18.8594 15.0508C19.0703 15.4727 19.0703 16 18.8242 16.457C18.5781 16.8789 18.1211 17.125 17.6289 17.125H2.44141C1.91406 17.125 1.45703 16.8789 1.21094 16.457C0.964844 16 0.964844 15.4727 1.17578 15.0508L8.76953 0.988281C9.01562 0.53125 9.50781 0.25 10.0352 0.25ZM2.89844 15.4375H17.1367L10.0352 2.25391L2.89844 15.4375ZM10.0352 14.0312C9.40234 14.0312 8.91016 13.5391 8.91016 12.9062C8.91016 12.2734 9.40234 11.7812 10.0352 11.7812C10.6328 11.7812 11.1602 12.2734 11.1602 12.9062C11.1602 13.5391 10.6328 14.0312 10.0352 14.0312ZM10.0352 6.71875C10.668 6.71875 11.1953 7.28125 11.125 7.94922L10.8438 10.1992C10.8086 10.6211 10.457 10.9375 10.0352 10.9375C9.57812 10.9375 9.22656 10.6211 9.19141 10.1992L8.94531 7.94922C8.875 7.28125 9.36719 6.71875 10.0352 6.71875Z" fill="#DC2625"/>
</svg>
