<svg width="30" height="23" viewBox="0 0 30 23" fill="none" xmlns="http://www.w3.org/2000/svg">
<path d="M15 9.875C17.0625 9.875 18.75 8.1875 18.75 6.125C18.75 4.0625 17.0625 2.375 15 2.375C12.9375 2.375 11.25 4.0625 11.25 6.125C11.25 8.1875 12.9375 9.875 15 9.875ZM15 0.875C17.9062 0.875 20.25 3.21875 20.25 6.125C20.25 9.03125 17.9062 11.375 15 11.375C12.0938 11.375 9.75 9.03125 9.75 6.125C9.75 3.21875 12.0938 0.875 15 0.875ZM13.875 15.125C10.7812 15.125 8.25 17.6562 8.25 20.75V21.875C8.25 22.2969 7.92188 22.625 7.5 22.625C7.07812 22.625 6.75 22.2969 6.75 21.875V20.75C6.75 16.8125 9.9375 13.625 13.875 13.625H16.125C20.0625 13.625 23.25 16.8125 23.25 20.75V21.875C23.25 22.2969 22.9219 22.625 22.5 22.625C22.0781 22.625 21.75 22.2969 21.75 21.875V20.75C21.75 17.6562 19.2188 15.125 16.125 15.125H13.875ZM20.2031 11.5156C20.5781 11.1406 20.9062 10.7656 21.1875 10.3438C21.6094 10.5312 22.0312 10.625 22.5 10.625C24.1406 10.625 25.5 9.26562 25.5 7.625C25.5 5.98438 24.1406 4.625 22.5 4.625C22.4531 4.625 22.4062 4.625 22.3594 4.625C22.2656 4.10938 22.0781 3.64062 21.8906 3.17188C22.0781 3.125 22.3125 3.125 22.5 3.125C24.9844 3.125 27 5.14062 27 7.625C27 10.1094 24.9844 12.125 22.5 12.125C21.6562 12.125 20.9062 11.8906 20.2031 11.5156ZM7.5 3.125C7.6875 3.125 7.92188 3.125 8.10938 3.17188C7.92188 3.64062 7.73438 4.10938 7.64062 4.625C7.59375 4.625 7.54688 4.625 7.5 4.625C5.85938 4.625 4.5 5.98438 4.5 7.625C4.5 9.26562 5.85938 10.625 7.5 10.625C7.96875 10.625 8.39062 10.5312 8.76562 10.3438C9.09375 10.7656 9.42188 11.1406 9.75 11.5156C9.09375 11.8906 8.34375 12.125 7.5 12.125C5.01562 12.125 3 10.1094 3 7.625C3 5.14062 5.01562 3.125 7.5 3.125ZM6.98438 14.375C6.5625 14.8438 6.14062 15.4062 5.8125 15.9688C3.375 16.3906 1.5 18.5469 1.5 21.125V21.875C1.5 22.2969 1.17188 22.625 0.75 22.625C0.328125 22.625 0 22.2969 0 21.875V21.125C0 17.4219 3.04688 14.375 6.75 14.375H6.98438ZM24.1875 15.9688C23.8594 15.4062 23.4375 14.8438 23.0156 14.375H23.25C27 14.375 30 17.4219 30 21.125V21.875C30 22.2969 29.6719 22.625 29.25 22.625C28.8281 22.625 28.5 22.2969 28.5 21.875V21.125C28.5 18.5469 26.625 16.3906 24.1875 15.9688Z" fill="#545861"/>
</svg>
