<svg width="28" height="26" viewBox="0 0 28 26" fill="none" xmlns="http://www.w3.org/2000/svg">
<path d="M6.5 6C6.5 8.48438 8.51562 10.5 11 10.5C13.4844 10.5 15.5 8.48438 15.5 6C15.5 3.51562 13.4844 1.5 11 1.5C8.51562 1.5 6.5 3.51562 6.5 6ZM17 6C17 9.32812 14.3281 12 11 12C7.67188 12 5 9.32812 5 6C5 2.67188 7.67188 0 11 0C14.3281 0 17 2.67188 17 6ZM2 22.5V23.25C2 23.6719 1.67188 24 1.25 24C0.828125 24 0.5 23.6719 0.5 23.25V22.5C0.5 17.9531 4.20312 14.25 8.75 14.25H12.9688C12.6875 14.7188 12.4531 15.2344 12.2656 15.75H8.75C5.04688 15.75 2 18.7969 2 22.5ZM20.75 13.5C17.8438 13.5 15.5 15.8438 15.5 18.75C15.5 21.6562 17.8438 24 20.75 24C23.6562 24 26 21.6562 26 18.75C26 15.8438 23.6562 13.5 20.75 13.5ZM20.75 25.5C17 25.5 14 22.5 14 18.75C14 15 17 12 20.75 12C24.5 12 27.5 15 27.5 18.75C27.5 22.5 24.5 25.5 20.75 25.5ZM24.5 18.75C24.5 19.1719 24.1719 19.5 23.75 19.5H17.75C17.3281 19.5 17 19.1719 17 18.75C17 18.3281 17.3281 18 17.75 18H23.75C24.1719 18 24.5 18.3281 24.5 18.75Z" fill="#545861"/>
</svg>
